<svg width="17" height="17" viewBox="0 0 17 17" fill="none" xmlns="http://www.w3.org/2000/svg">
<path d="M14.612 11.3326C14.5569 11.2662 14.5028 11.1997 14.4497 11.1357C13.7192 10.2521 13.2773 9.71889 13.2773 7.2177C13.2773 5.92277 12.9675 4.86027 12.3569 4.0634C11.9066 3.47471 11.298 3.02813 10.4958 2.69809C10.4855 2.69234 10.4763 2.68481 10.4686 2.67584C10.1801 1.70963 9.3905 1.0625 8.5 1.0625C7.60949 1.0625 6.82025 1.70963 6.53172 2.67484C6.52402 2.68349 6.51493 2.69078 6.50482 2.69643C4.63283 3.46707 3.72306 4.94561 3.72306 7.2167C3.72306 9.71889 3.28179 10.2521 2.55066 11.1347C2.49754 11.1988 2.44342 11.2638 2.3883 11.3316C2.24592 11.5033 2.15572 11.7122 2.12836 11.9335C2.10099 12.1549 2.13762 12.3795 2.2339 12.5807C2.43877 13.0123 2.87539 13.2803 3.37377 13.2803H13.6299C14.1259 13.2803 14.5596 13.0126 14.7651 12.583C14.8618 12.3817 14.8988 12.157 14.8716 11.9354C14.8445 11.7137 14.7544 11.5045 14.612 11.3326ZM8.5 15.9375C8.97979 15.9371 9.45054 15.8069 9.86231 15.5606C10.2741 15.3143 10.6115 14.9612 10.8388 14.5387C10.8495 14.5184 10.8548 14.4957 10.8542 14.4728C10.8535 14.4499 10.847 14.4276 10.8352 14.408C10.8233 14.3884 10.8066 14.3721 10.7867 14.3609C10.7667 14.3496 10.7442 14.3437 10.7213 14.3438H6.27937C6.25644 14.3437 6.23387 14.3495 6.21387 14.3608C6.19388 14.372 6.17713 14.3882 6.16526 14.4078C6.15339 14.4275 6.14681 14.4498 6.14615 14.4727C6.14549 14.4957 6.15078 14.5184 6.1615 14.5387C6.38879 14.9611 6.72617 15.3142 7.13787 15.5605C7.54958 15.8068 8.02026 15.9371 8.5 15.9375Z" fill="white"/>
</svg>
